<svg xmlns="http://www.w3.org/2000/svg" xmlns:xlink="http://www.w3.org/1999/xlink" viewBox="0,0,256,256" width="48px" height="48px" fill-rule="nonzero"><g fill="#ffffff" fill-rule="nonzero" stroke="none" stroke-width="1" stroke-linecap="butt" stroke-linejoin="miter" stroke-miterlimit="10" stroke-dasharray="" stroke-dashoffset="0" font-family="none" font-weight="none" font-size="none" text-anchor="none" style="mix-blend-mode: normal"><g transform="scale(5.33333,5.33333)"><path d="M12.5,4c-2.481,0 -4.5,2.019 -4.5,4.5v31c0,2.481 2.019,4.5 4.5,4.5h23c2.481,0 4.5,-2.019 4.5,-4.5v-19.5h-11.5c-2.481,0 -4.5,-2.019 -4.5,-4.5v-11.5zM27,4.87891v10.62109c0,0.827 0.673,1.5 1.5,1.5h10.62109zM17.5,25h13c0.828,0 1.5,0.672 1.5,1.5c0,0.828 -0.672,1.5 -1.5,1.5h-13c-0.828,0 -1.5,-0.672 -1.5,-1.5c0,-0.828 0.672,-1.5 1.5,-1.5zM17.49023,32h8.99609c0.828,0 1.5,0.671 1.5,1.5c0.001,0.759 -0.56292,1.38733 -1.29492,1.48633l-0.20312,0.01367h-8.99609c-0.828,0 -1.5,-0.672 -1.5,-1.5c0,-0.759 0.56292,-1.38733 1.29492,-1.48633z"></path></g></g></svg>